<?xml version="1.0" standalone="no"?>
<!DOCTYPE svg PUBLIC "-//W3C//DTD SVG 20010904//EN"
 "http://www.w3.org/TR/2001/REC-SVG-20010904/DTD/svg10.dtd">
<svg version="1.0" xmlns="http://www.w3.org/2000/svg"
 width="1024.000000pt" height="1024.000000pt" viewBox="0 0 1024.000000 1024.000000"
 preserveAspectRatio="xMidYMid meet">

<g transform="translate(0.000000,1024.000000) scale(0.100000,-0.100000)"
fill="#000000" stroke="none">
<path d="M4510 9200 c-184 -17 -403 -77 -520 -143 -185 -102 -326 -257 -390
-428 l-22 -56 -106 -18 c-266 -43 -606 -166 -867 -312 -246 -138 -461 -300
-672 -507 -84 -82 -153 -142 -153 -133 0 8 14 69 32 134 28 107 31 133 32 273
1 85 -3 168 -7 184 l-8 29 -71 -69 c-424 -415 -587 -894 -418 -1227 l30 -58
-24 -97 c-35 -141 -49 -266 -49 -442 1 -623 233 -1192 657 -1616 126 -125 241
-206 415 -292 l113 -56 -4 -155 c-4 -127 -9 -168 -27 -222 -56 -164 -188 -262
-373 -276 l-78 -6 0 -58 0 -59 1063 0 c1111 1 1304 6 1477 39 58 12 108 21
111 21 12 0 197 -424 415 -950 l93 -225 88 -3 89 -3 72 183 c276 705 382 978
382 982 0 4 98 255 290 741 54 138 121 309 148 380 28 72 82 207 120 300 38
94 109 271 157 395 48 124 101 257 117 295 90 205 223 331 371 349 26 3 67 9
92 12 l45 5 0 50 0 49 -475 0 -475 0 0 -49 0 -50 48 -5 c226 -28 301 -134 249
-356 -9 -36 -80 -229 -160 -430 -79 -201 -208 -529 -287 -730 -238 -609 -502
-1275 -510 -1283 -4 -4 -48 90 -97 210 -50 120 -112 266 -136 325 l-45 106 79
67 c99 84 273 266 345 362 142 188 228 381 280 628 21 99 26 158 31 335 8 306
-15 481 -97 730 -108 330 -349 669 -620 871 -287 213 -629 354 -1012 416 -90
15 -235 17 -1175 20 l-1073 4 0 -61 0 -60 48 0 c165 -1 308 -84 377 -220 55
-109 55 -98 55 -1406 0 -662 -4 -1204 -8 -1204 -5 0 -51 21 -103 48 -267 135
-438 297 -658 625 -227 338 -354 780 -354 1232 0 333 48 519 194 760 36 61 94
162 127 226 56 105 76 131 222 286 160 172 256 259 405 369 353 259 726 426
1140 509 113 23 482 62 492 52 2 -3 19 -47 37 -99 55 -161 159 -311 324 -470
170 -164 354 -263 591 -319 89 -22 333 -60 340 -54 7 7 -50 179 -84 252 -93
203 -252 381 -430 485 -91 52 -237 117 -370 164 l-120 43 102 0 c207 2 466
-51 765 -155 122 -43 422 -181 558 -259 l97 -54 27 -73 c38 -98 134 -281 203
-387 231 -355 547 -609 921 -741 l103 -36 85 -150 c157 -275 222 -431 285
-681 36 -147 65 -331 71 -459 l3 -62 -113 -107 c-240 -228 -417 -479 -535
-755 -192 -453 -233 -920 -114 -1310 l23 -75 -87 -100 c-131 -152 -154 -175
-289 -292 -178 -155 -252 -212 -392 -304 -279 -182 -560 -294 -966 -383 -299
-66 -533 -92 -907 -103 -471 -13 -867 33 -1351 157 -569 146 -955 312 -1458
629 -124 77 -145 84 -146 48 0 -11 228 -158 390 -252 450 -262 987 -458 1585
-581 72 -14 135 -31 141 -38 6 -6 23 -45 38 -86 47 -132 155 -297 284 -432
186 -195 374 -307 627 -372 168 -44 355 -69 355 -48 0 4 -15 54 -34 110 -92
271 -236 465 -453 608 -75 50 -250 141 -334 175 -30 12 5 14 316 20 262 5 394
12 526 28 425 51 774 141 1085 279 368 163 746 455 1067 825 32 37 97 95 145
129 303 215 511 449 665 749 93 183 152 372 183 594 23 167 13 463 -22 614
l-5 24 193 -6 c338 -11 570 -82 831 -257 253 -169 524 -550 641 -900 97 -291
130 -665 81 -938 -101 -573 -394 -1032 -778 -1217 -110 -53 -266 -107 -362
-126 -109 -22 -338 -17 -458 9 -202 44 -378 116 -539 221 -120 77 -142 102
-157 174 -20 92 -89 155 -141 127 -68 -36 4 -162 128 -224 26 -12 92 -51 146
-86 187 -119 379 -197 586 -241 125 -26 333 -31 450 -10 86 15 322 92 392 127
368 186 627 558 763 1094 108 427 52 938 -149 1347 -91 186 -281 450 -413 574
-177 166 -466 311 -726 363 -69 15 -339 35 -457 36 l-46 0 -35 140 -36 140
-37 -25 c-20 -14 -39 -25 -41 -25 -3 0 -5 19 -5 43 -1 67 -36 295 -65 412 -55
224 -136 434 -253 655 -42 80 -78 150 -80 156 -2 7 20 6 70 -3 147 -26 374
-37 546 -26 90 6 166 13 169 16 16 17 -176 337 -302 502 -350 460 -683 702
-1141 829 -174 48 -263 59 -514 61 l-235 1 -90 46 c-447 226 -788 335 -1185
379 -58 6 -194 11 -303 12 l-199 1 87 23 c190 50 367 138 530 262 67 51 295
269 295 282 0 19 -196 30 -320 19z m-665 -1959 c181 -28 311 -69 480 -151 367
-177 576 -394 786 -811 97 -194 141 -334 175 -549 25 -159 25 -453 0 -610 -34
-221 -131 -553 -201 -690 l-23 -45 -25 56 c-14 30 -78 181 -142 335 -64 153
-166 394 -225 534 -159 375 -157 370 -175 440 -49 188 38 329 215 346 126 12
120 9 120 64 l0 50 -775 0 -775 0 0 -54 0 -53 68 -5 c149 -11 295 -132 405
-338 41 -76 180 -397 584 -1350 69 -162 148 -348 175 -413 28 -65 49 -120 46
-122 -28 -29 -278 -114 -413 -141 -109 -22 -381 -30 -486 -14 -215 31 -397
146 -465 295 -62 136 -58 35 -62 1545 -2 756 0 1447 3 1535 l7 160 311 -1
c190 -1 343 -6 392 -13z"/>
</g>
</svg>
